<svg xmlns="http://www.w3.org/2000/svg">

<symbol viewBox="0 0 81 79"  id="icon1">
    <path id="investment" d="M80.4773 64.224C80.4764 63.2724 80.0933 62.3601 79.412 61.6872C78.7308 61.0143 77.807 60.6359 76.8436 60.635C76.0007 60.7714 60.9062 60.2852 60.7008 61.0163C61.3454 60.0578 61.0089 57.3433 61.0904 56.2449C61.0885 55.2927 60.7047 54.38 60.023 53.7066C59.3413 53.0333 58.4172 52.6542 57.4531 52.6524C57.1733 52.7188 41.2926 52.4565 41.6999 52.8762V47.0694H50.1751C53.0666 47.0657 55.8386 45.9293 57.883 43.9095C59.9273 41.8897 61.077 39.1514 61.0798 36.2954C61.0798 35.9787 60.9526 35.6749 60.7263 35.4507C60.4999 35.2264 60.1927 35.1 59.8721 35.099H50.1751C48.5493 35.0995 46.9442 35.4595 45.4777 36.1526C44.0111 36.8456 42.7203 37.8542 41.6999 39.1043V31.0588C45.759 30.7494 49.5391 28.8993 52.2469 25.8966C54.9548 22.8939 56.3798 18.9719 56.2231 14.9538C56.0664 10.9357 54.3401 7.13366 51.4065 4.34556C48.4728 1.55746 44.5599 0 40.4887 0C36.4175 0 32.5045 1.55746 29.5708 4.34556C26.6372 7.13366 24.9109 10.9357 24.7542 14.9538C24.5975 18.9719 26.0226 22.8939 28.7304 25.8966C31.4382 28.8993 35.2183 30.7494 39.2774 31.0588V47.1079C38.256 45.8518 36.9618 44.8385 35.4906 44.1428C34.0193 43.4471 32.4086 43.0869 30.7775 43.0886H21.0982C20.7769 43.0886 20.4689 43.2147 20.2417 43.439C20.0146 43.6634 19.8869 43.9677 19.8869 44.285C19.8907 47.1404 21.0408 49.8778 23.085 51.8968C25.1292 53.9159 27.9007 55.0518 30.7917 55.0555H39.2916V60.8588C39.8158 60.4356 23.7367 60.7119 23.5384 60.6385C22.5749 60.6394 21.6512 61.0178 20.97 61.6907C20.2887 62.3636 19.9056 63.2759 19.9046 64.2275C19.9932 65.3329 19.6461 68.0299 20.2907 68.9988C20.1384 68.2538 4.93413 68.7505 4.14789 68.6176C3.66994 68.6162 3.1964 68.7079 2.75434 68.8873C2.31228 69.0668 1.91037 69.3306 1.57159 69.6636C1.2328 69.9966 0.963787 70.3923 0.779917 70.828C0.596047 71.2637 0.500929 71.731 0.5 72.2031L0.5 75.3968C0.501872 76.3481 0.885311 77.2599 1.56636 77.9326C2.24741 78.6053 3.17058 78.984 4.13372 78.9858H18.6757C19.5728 78.9837 20.4368 78.6506 21.0982 78.0519C21.7617 78.6494 22.6263 78.9822 23.5242 78.9858H38.0662C38.9632 78.983 39.8269 78.65 40.4887 78.0519C41.1508 78.6494 42.0143 78.9823 42.9111 78.9858H57.4531C58.3501 78.983 59.2139 78.65 59.8756 78.0519C60.5392 78.6494 61.4037 78.9822 62.3016 78.9858H76.8436C77.8068 78.984 78.7299 78.6053 79.411 77.9326C80.092 77.2599 80.4755 76.3481 80.4773 75.3968C80.3923 73.8332 80.8811 70.9788 79.5317 69.7999C80.8705 68.6455 80.4065 65.7876 80.4773 64.224ZM50.1751 37.4952H58.5829C58.2881 39.4881 57.2778 41.3098 55.7363 42.6282C54.1947 43.9465 52.2248 44.6736 50.1857 44.6768H41.7778C42.0726 42.6839 43.083 40.8622 44.6245 39.5438C46.166 38.2255 48.136 37.4984 50.1751 37.4952ZM30.7917 52.6559C28.7521 52.6516 26.7821 51.9232 25.2412 50.6035C23.7003 49.2838 22.6911 47.4608 22.398 45.4673H30.7917C32.8307 45.4705 34.8007 46.1976 36.3422 47.5159C37.8838 48.8343 38.8941 50.656 39.1889 52.6489L30.7917 52.6559ZM19.8905 75.3933C19.8895 75.7109 19.7611 76.0152 19.5334 76.2395C19.3057 76.4637 18.9973 76.5897 18.6757 76.5897H4.13372C2.28145 76.5652 3.07123 73.7667 2.92602 72.1996C2.92602 71.8829 3.05315 71.5791 3.27954 71.3549C3.50592 71.1306 3.8131 71.0042 4.13372 71.0032H18.6757C20.5315 71.0312 19.7276 73.8297 19.8905 75.3933ZM39.2774 75.3933C39.2765 75.7103 39.1486 76.0141 38.9216 76.2382C38.6947 76.4624 38.3871 76.5887 38.0662 76.5897H23.5207C21.6648 76.5652 22.4582 73.7702 22.3094 72.1996C22.3104 71.8826 22.4383 71.5788 22.6652 71.3547C22.8922 71.1305 23.1997 71.0042 23.5207 71.0032H38.0626C39.9185 71.0312 39.1039 73.8297 39.2774 75.3933ZM39.2774 67.4142C39.2765 67.7312 39.1486 68.035 38.9216 68.2591C38.6947 68.4833 38.3871 68.6096 38.0662 68.6106H23.5207C21.6648 68.5861 22.4582 65.7841 22.3094 64.2205C22.3113 63.9041 22.4396 63.6012 22.6665 63.3778C22.8933 63.1544 23.2003 63.0286 23.5207 63.0276H38.0626C39.9185 63.0521 39.1039 65.8506 39.2774 67.4142ZM27.1579 15.5518C27.1579 12.0598 28.5624 8.71077 31.0624 6.24153C33.5624 3.77228 36.9531 2.38508 40.4887 2.38508C44.0242 2.38508 47.4149 3.77228 49.9149 6.24153C52.4149 8.71077 53.8194 12.0598 53.8194 15.5518C53.8194 19.0439 52.4149 22.3929 49.9149 24.8621C47.4149 27.3314 44.0242 28.7186 40.4887 28.7186C36.9531 28.7186 33.5624 27.3314 31.0624 24.8621C28.5624 22.3929 27.1579 19.0439 27.1579 15.5518ZM58.6785 75.3968C58.6776 75.7144 58.5492 76.0187 58.3215 76.243C58.0938 76.4672 57.7853 76.5932 57.4637 76.5932H42.9111C41.0589 76.5687 41.8664 73.7702 41.6999 72.2031C41.7008 71.8861 41.8288 71.5823 42.0557 71.3582C42.2827 71.134 42.5902 71.0077 42.9111 71.0067H57.4531C59.3089 71.0312 58.5014 73.8332 58.6679 75.3968H58.6785ZM58.6785 67.4177C58.6776 67.7353 58.5492 68.0396 58.3215 68.2639C58.0938 68.4881 57.7853 68.6141 57.4637 68.6141H42.9111C41.0589 68.5896 41.8664 65.7876 41.6999 64.224C41.7008 63.907 41.8288 63.6032 42.0557 63.3791C42.2827 63.1549 42.5902 63.0286 42.9111 63.0276H57.4531C59.3089 63.0521 58.5014 65.8541 58.6679 67.4177H58.6785ZM58.6785 59.4386C58.6776 59.7562 58.5492 60.0605 58.3215 60.2848C58.0938 60.509 57.7853 60.635 57.4637 60.635H42.9111C41.0589 60.6105 41.8664 57.8085 41.6999 56.2449C41.6999 55.9276 41.8275 55.6233 42.0547 55.3989C42.2818 55.1746 42.5899 55.0485 42.9111 55.0485H57.4531C59.3089 55.073 58.5014 57.8715 58.6679 59.4386H58.6785ZM78.0619 75.3968C78.061 75.7138 77.9331 76.0176 77.7061 76.2417C77.4792 76.4659 77.1716 76.5922 76.8507 76.5932H62.3016C60.4458 76.5687 61.2391 73.7737 61.0904 72.2031C61.0904 71.8858 61.218 71.5815 61.4452 71.3571C61.6723 71.1328 61.9804 71.0067 62.3016 71.0067H76.8436C78.6959 71.0312 77.8919 73.8367 78.0619 75.3968ZM78.0619 67.4177C78.061 67.7347 77.9331 68.0385 77.7061 68.2626C77.4792 68.4868 77.1716 68.6131 76.8507 68.6141H62.3016C60.4458 68.5896 61.2391 65.7876 61.0904 64.224C61.0904 63.9067 61.218 63.6024 61.4452 63.378C61.6723 63.1537 61.9804 63.0276 62.3016 63.0276H76.8436C78.6959 63.0521 77.8919 65.8541 78.0619 67.4177ZM45.5426 18.9939C45.5118 20.0623 45.1144 21.0886 44.4155 21.9047C43.7167 22.7208 42.7579 23.2781 41.6964 23.4854C41.7814 24.3705 41.6291 25.5213 40.4816 25.5248C39.3341 25.5283 39.1818 24.3705 39.2703 23.4854C38.5076 23.3255 37.7945 22.9882 37.1903 22.5015C36.586 22.0148 36.108 21.3928 35.796 20.687C35.6861 20.3976 35.694 20.0774 35.8179 19.7935C35.9418 19.5097 36.1721 19.2842 36.4605 19.1643C36.749 19.0445 37.0732 19.0396 37.3653 19.1506C37.6574 19.2617 37.8946 19.48 38.0272 19.76C38.8914 22.0372 43.1839 21.481 43.1201 18.9939C43.1201 17.5037 42.2312 16.7482 40.4816 16.7482C39.2853 16.8491 38.0957 16.4905 37.1603 15.7471C36.2249 15.0036 35.6158 13.9325 35.4598 12.7567C35.3037 11.5809 35.6127 10.3909 36.3225 9.43446C37.0323 8.47799 38.0881 7.82869 39.2703 7.62169C39.1818 6.73318 39.3341 5.57882 40.4816 5.57882C41.6291 5.57882 41.7849 6.72968 41.6964 7.61819C43.3786 7.85256 46.7503 10.5601 44.5297 11.9838C44.383 12.0452 44.2255 12.0774 44.0662 12.0784C43.9069 12.0795 43.7489 12.0494 43.6015 11.9899C43.454 11.9304 43.3199 11.8427 43.2069 11.7317C43.0939 11.6208 43.0042 11.4889 42.943 11.3436C42.0824 9.0629 37.7864 9.62259 37.8501 12.1097C37.8501 13.6209 38.7108 14.3555 40.4745 14.3555C41.1256 14.2861 41.7842 14.3555 42.4058 14.5589C43.0274 14.7624 43.5976 15.0951 44.078 15.5348C44.5583 15.9744 44.9376 16.5107 45.1903 17.1074C45.4429 17.7041 45.5631 18.3474 45.5426 18.9939ZM32.7927 15.5518C32.7927 15.8691 32.6651 16.1734 32.4379 16.3978C32.2108 16.6221 31.9027 16.7482 31.5814 16.7482C31.2602 16.7482 30.9521 16.6221 30.725 16.3978C30.4978 16.1734 30.3702 15.8691 30.3702 15.5518C30.3702 15.2327 30.4986 14.9266 30.727 14.7009C30.9555 14.4753 31.2654 14.3485 31.5885 14.3485C31.9116 14.3485 32.2215 14.4753 32.45 14.7009C32.6785 14.9266 32.8068 15.2327 32.8068 15.5518H32.7927ZM49.3746 16.7482C49.0534 16.7482 48.7453 16.6221 48.5182 16.3978C48.291 16.1734 48.1634 15.8691 48.1634 15.5518C48.1634 15.2345 48.291 14.9302 48.5182 14.7059C48.7453 14.4815 49.0534 14.3555 49.3746 14.3555C49.6959 14.3555 50.004 14.4815 50.2311 14.7059C50.4583 14.9302 50.5859 15.2345 50.5859 15.5518C50.5859 15.8691 50.4583 16.1734 50.2311 16.3978C50.004 16.6221 49.6959 16.7482 49.3746 16.7482Z" />
</symbol>

<symbol viewBox="0 0 80 79"  id="icon2">
<path id="environmental program" d="M51.1727 23.1356H30.2726C29.9634 23.1191 29.6725 22.9858 29.4596 22.7633C29.2466 22.5409 29.128 22.246 29.128 21.9395C29.128 21.6331 29.2466 21.3382 29.4596 21.1157C29.6725 20.8932 29.9634 20.76 30.2726 20.7435H51.1727C51.3369 20.7347 51.5011 20.7591 51.6554 20.8153C51.8097 20.8714 51.9508 20.9581 52.0702 21.07C52.1895 21.1819 52.2845 21.3168 52.3495 21.4663C52.4144 21.6158 52.4479 21.7768 52.4479 21.9395C52.4479 22.1023 52.4144 22.2633 52.3495 22.4128C52.2845 22.5623 52.1895 22.6972 52.0702 22.8091C51.9508 22.921 51.8097 23.0077 51.6554 23.0638C51.5011 23.12 51.3369 23.1444 51.1727 23.1356ZM17.027 23.1356H23.8279C24.1371 23.1191 24.428 22.9858 24.6409 22.7633C24.8539 22.5409 24.9725 22.246 24.9725 21.9395C24.9725 21.6331 24.8539 21.3382 24.6409 21.1157C24.428 20.8932 24.1371 20.76 23.8279 20.7435H17.027C16.7179 20.76 16.4269 20.8932 16.214 21.1157C16.0011 21.3382 15.8824 21.6331 15.8824 21.9395C15.8824 22.246 16.0011 22.5409 16.214 22.7633C16.4269 22.9858 16.7179 23.1191 17.027 23.1356ZM10.5824 20.7435H9.27014C8.96101 20.76 8.67004 20.8932 8.45712 21.1157C8.2442 21.3382 8.12553 21.6331 8.12553 21.9395C8.12553 22.246 8.2442 22.5409 8.45712 22.7633C8.67004 22.9858 8.96101 23.1191 9.27014 23.1356H10.5824C10.8915 23.1191 11.1825 22.9858 11.3954 22.7633C11.6083 22.5409 11.727 22.246 11.727 21.9395C11.727 21.6331 11.6083 21.3382 11.3954 21.1157C11.1825 20.8932 10.8915 20.76 10.5824 20.7435ZM33.8635 31.9184H17.027C16.7179 31.935 16.4269 32.0682 16.214 32.2907C16.0011 32.5132 15.8824 32.808 15.8824 33.1145C15.8824 33.421 16.0011 33.7158 16.214 33.9383C16.4269 34.1608 16.7179 34.294 17.027 34.3105H33.8635C34.1844 34.3105 34.4922 34.1843 34.7191 33.9597C34.946 33.7351 35.0734 33.4304 35.0734 33.1127C35.0734 32.7951 34.946 32.4904 34.7191 32.2658C34.4922 32.0411 34.1844 31.9149 33.8635 31.9149V31.9184ZM10.5824 31.9184H9.27014C8.96101 31.935 8.67004 32.0682 8.45712 32.2907C8.2442 32.5132 8.12553 32.808 8.12553 33.1145C8.12553 33.421 8.2442 33.7158 8.45712 33.9383C8.67004 34.1608 8.96101 34.294 9.27014 34.3105H10.5824C10.9032 34.3105 11.211 34.1843 11.4379 33.9597C11.6648 33.7351 11.7923 33.4304 11.7923 33.1127C11.7923 32.7951 11.6648 32.4904 11.4379 32.2658C11.211 32.0411 10.9032 31.9149 10.5824 31.9149V31.9184ZM17.0305 45.4785H33.8635C34.1727 45.462 34.4636 45.3287 34.6765 45.1062C34.8895 44.8837 35.0081 44.5889 35.0081 44.2824C35.0081 43.9759 34.8895 43.6811 34.6765 43.4586C34.4636 43.2361 34.1727 43.1029 33.8635 43.0864H17.027C16.723 43.1094 16.439 43.2452 16.2317 43.4667C16.0245 43.6881 15.9094 43.9788 15.9094 44.2807C15.9094 44.5825 16.0245 44.8733 16.2317 45.0947C16.439 45.3162 16.723 45.452 17.027 45.475L17.0305 45.4785ZM10.5824 43.0829H9.27014C8.96101 43.0994 8.67004 43.2326 8.45712 43.4551C8.2442 43.6776 8.12553 43.9725 8.12553 44.2789C8.12553 44.5854 8.2442 44.8803 8.45712 45.1027C8.67004 45.3252 8.96101 45.4585 9.27014 45.475H10.5824C10.8915 45.4585 11.1825 45.3252 11.3954 45.1027C11.6083 44.8803 11.727 44.5854 11.727 44.2789C11.727 43.9725 11.6083 43.6776 11.3954 43.4551C11.1825 43.2326 10.8915 43.0994 10.5824 43.0829ZM43.5217 54.2578H28.6641C28.3549 54.2744 28.064 54.4076 27.851 54.6301C27.6381 54.8526 27.5195 55.1474 27.5195 55.4539C27.5195 55.7604 27.6381 56.0552 27.851 56.2777C28.064 56.5002 28.3549 56.6334 28.6641 56.6499H43.5182C43.8391 56.6499 44.1468 56.5238 44.3737 56.2991C44.6006 56.0745 44.7281 55.7698 44.7281 55.4521C44.7281 55.1344 44.6006 54.8298 44.3737 54.6051C44.1468 54.3805 43.8391 54.2543 43.5182 54.2543L43.5217 54.2578ZM17.0305 56.6499H22.2229C22.5321 56.6334 22.823 56.5002 23.036 56.2777C23.2489 56.0552 23.3675 55.7604 23.3675 55.4539C23.3675 55.1474 23.2489 54.8526 23.036 54.6301C22.823 54.4076 22.5321 54.2744 22.2229 54.2578H17.027C16.723 54.2808 16.439 54.4167 16.2317 54.6381C16.0245 54.8595 15.9094 55.1503 15.9094 55.4521C15.9094 55.754 16.0245 56.0447 16.2317 56.2662C16.439 56.4876 16.723 56.6234 17.027 56.6465L17.0305 56.6499ZM10.5824 54.2543H9.27014C8.96101 54.2709 8.67004 54.4041 8.45712 54.6266C8.2442 54.8491 8.12553 55.1439 8.12553 55.4504C8.12553 55.7569 8.2442 56.0517 8.45712 56.2742C8.67004 56.4967 8.96101 56.6299 9.27014 56.6465H10.5824C10.8915 56.6299 11.1825 56.4967 11.3954 56.2742C11.6083 56.0517 11.727 55.7569 11.727 55.4504C11.727 55.1439 11.6083 54.8491 11.3954 54.6266C11.1825 54.4041 10.8915 54.2709 10.5824 54.2543ZM33.9059 66.6236C33.9059 66.7804 33.9371 66.9357 33.9977 67.0806C34.0583 67.2255 34.1472 67.3572 34.2592 67.4681C34.3712 67.579 34.5042 67.667 34.6506 67.727C34.7969 67.787 34.9538 67.8179 35.1122 67.8179H51.1763C51.3404 67.8267 51.5046 67.8023 51.6589 67.7461C51.8132 67.69 51.9544 67.6033 52.0737 67.4914C52.193 67.3794 52.2881 67.2446 52.353 67.0951C52.418 66.9456 52.4515 66.7846 52.4515 66.6218C52.4515 66.4591 52.418 66.298 52.353 66.1485C52.2881 65.999 52.193 65.8642 52.0737 65.7523C51.9544 65.6404 51.8132 65.5537 51.6589 65.4975C51.5046 65.4414 51.3404 65.417 51.1763 65.4258H35.1087C34.95 65.4258 34.7928 65.4568 34.6462 65.517C34.4996 65.5772 34.3665 65.6655 34.2544 65.7768C34.1424 65.8881 34.0536 66.0201 33.9931 66.1655C33.9327 66.3108 33.9019 66.4664 33.9023 66.6236H33.9059ZM17.0305 67.8179H28.6711C28.9803 67.8014 29.2712 67.6681 29.4841 67.4456C29.6971 67.2231 29.8157 66.9283 29.8157 66.6218C29.8157 66.3153 29.6971 66.0205 29.4841 65.798C29.2712 65.5755 28.9803 65.4423 28.6711 65.4258H17.0305C16.7214 65.4419 16.4302 65.5747 16.2169 65.7968C16.0037 66.019 15.8846 66.3137 15.8841 66.6202C15.8837 66.9267 16.0019 67.2217 16.2145 67.4445C16.4271 67.6673 16.7214 67.8009 17.0305 67.8179ZM10.5824 65.4258H9.27014C8.96101 65.4423 8.67004 65.5755 8.45712 65.798C8.2442 66.0205 8.12553 66.3153 8.12553 66.6218C8.12553 66.9283 8.2442 67.2231 8.45712 67.4456C8.67004 67.6681 8.96101 67.8014 9.27014 67.8179H10.5824C10.8915 67.8014 11.1825 67.6681 11.3954 67.4456C11.6083 67.2231 11.727 66.9283 11.727 66.6218C11.727 66.3153 11.6083 66.0205 11.3954 65.798C11.1825 65.5755 10.8915 65.4423 10.5824 65.4258ZM60.4429 37.4884V56.3287C62.3158 53.334 65.0258 50.9413 68.2445 49.4407C71.4633 47.9401 75.0526 47.3959 78.5775 47.8741C78.8978 47.8741 79.205 47.9998 79.4318 48.2237C79.6586 48.4476 79.7865 48.7514 79.7874 49.0684C80.2059 51.7314 80.0048 54.4538 79.1992 57.0281C78.3937 59.6024 77.0051 61.9606 75.1392 63.923C73.2734 65.8854 70.9796 67.4001 68.4327 68.3517C65.8858 69.3032 63.1531 69.6665 60.4429 69.4138V74.5962C60.4419 75.7595 59.975 76.875 59.1444 77.6979C58.3138 78.5208 57.1875 78.984 56.0124 78.9858H4.43401C3.25861 78.984 2.13188 78.5209 1.30075 77.6981C0.469618 76.8753 0.00186572 75.7598 0 74.5962V4.38616C0.00186779 3.22284 0.469733 2.10775 1.30097 1.28549C2.1322 0.463221 3.25893 0.000923269 4.43401 0L56.0089 0C57.1833 0.00184705 58.3092 0.464552 59.1396 1.28672C59.9701 2.10888 60.4375 3.22345 60.4393 4.38616V13.9687C60.4226 14.2747 60.2881 14.5628 60.0633 14.7736C59.8386 14.9843 59.5408 15.1018 59.2312 15.1018C58.9216 15.1018 58.6238 14.9843 58.3991 14.7736C58.1743 14.5628 58.0397 14.2747 58.023 13.9687V4.38616C58.0221 3.85792 57.8095 3.35163 57.4319 2.97843C57.0542 2.60523 56.5424 2.39563 56.0089 2.39563H45.9345V5.98558C45.9326 7.57156 45.2954 9.09205 44.1626 10.2135C43.0298 11.335 41.4939 11.9658 39.8919 11.9677H20.5509C18.9486 11.9658 17.4124 11.3351 16.279 10.2137C15.1457 9.09236 14.5077 7.57188 14.5049 5.98558V2.39563H4.43401C3.90042 2.39563 3.38864 2.60523 3.01102 2.97843C2.63339 3.35163 2.42077 3.85792 2.41983 4.38616V74.5962C2.41983 75.125 2.63204 75.6322 3.00977 76.0062C3.3875 76.3801 3.89981 76.5902 4.43401 76.5902H56.0089C56.5431 76.5902 57.0554 76.3801 57.4331 76.0062C57.8108 75.6322 58.023 75.125 58.023 74.5962V53.4581C55.3131 53.7102 52.5808 53.3465 50.0343 52.3947C47.4879 51.4429 45.1946 49.9281 43.3291 47.9658C41.4637 46.0035 40.0754 43.6455 39.2701 41.0714C38.4647 38.4974 38.2636 35.7754 38.682 33.1127C38.6816 32.9556 38.7124 32.7999 38.7728 32.6546C38.8333 32.5093 38.922 32.3772 39.0341 32.266C39.1462 32.1547 39.2793 32.0664 39.4259 32.0062C39.5725 31.9459 39.7297 31.9149 39.8884 31.9149C43.4137 31.4366 47.0034 31.9811 50.2223 33.4824C53.4412 34.9837 56.151 37.3773 58.023 40.373V33.1092C58.0652 30.5882 58.6525 28.1053 59.7452 25.8277C60.838 23.5502 62.4109 21.5308 64.358 19.9055C66.3052 18.2803 68.5815 17.0868 71.0336 16.4055C73.4858 15.7242 76.0569 15.5708 78.574 15.9557C78.8946 15.9566 79.2018 16.0831 79.4285 16.3076C79.6552 16.532 79.783 16.8361 79.7839 17.1535C80.1727 19.6454 80.0178 22.1908 79.3296 24.6184C78.6414 27.0461 77.4359 29.2996 75.7942 31.2273C74.1525 33.155 72.1127 34.7121 69.8121 35.7939C67.5116 36.8758 65.0036 37.4571 62.457 37.4989L60.4429 37.4884ZM60.4429 33.4026L68.0516 25.87C68.1618 25.7499 68.2955 25.6533 68.4445 25.586C68.5936 25.5186 68.7549 25.4819 68.9187 25.4782C69.0825 25.4744 69.2454 25.5036 69.3974 25.564C69.5495 25.6244 69.6876 25.7147 69.8033 25.8295C69.9191 25.9444 70.01 26.0812 70.0707 26.2319C70.1314 26.3826 70.1606 26.5439 70.1564 26.706C70.1523 26.8682 70.1149 27.0278 70.0466 27.1753C69.9782 27.3227 69.8803 27.4548 69.7589 27.5637L62.1537 35.0963C64.3059 35.1138 66.4373 34.6783 68.4067 33.8187C70.3761 32.959 72.1384 31.6949 73.577 30.1099C75.0155 28.525 76.0974 26.6555 76.7509 24.6253C77.4044 22.5951 77.6146 20.4506 77.3676 18.3339C75.2545 18.0889 73.113 18.2866 71.0822 18.9144C69.0514 19.5421 67.1767 20.5858 65.5799 21.9776C63.9831 23.3694 62.6999 25.0782 61.8137 26.993C60.9274 28.9078 60.458 30.9857 60.4358 33.0918L60.4429 33.4026ZM41.1019 34.2966C40.8543 36.4134 41.0641 38.5581 41.7174 40.5886C42.3707 42.619 43.4525 44.4887 44.8911 46.0738C46.3298 47.6589 48.0924 48.9231 50.062 49.7825C52.0317 50.642 54.1633 51.0771 56.3158 51.059L48.7106 43.5299C48.4903 43.3039 48.3684 43.0014 48.3712 42.6874C48.374 42.3734 48.5012 42.073 48.7255 41.851C48.9498 41.6289 49.2532 41.5029 49.5704 41.5002C49.8876 41.4974 50.1932 41.6181 50.4214 41.8362L58.0266 49.3653C58.0437 47.2352 57.6035 45.1258 56.7352 43.1768C55.8669 41.2278 54.5902 39.4838 52.9897 38.0601C51.3891 36.6363 49.5014 35.5655 47.4513 34.9185C45.4013 34.2715 43.2358 34.0631 41.0983 34.3071L41.1019 34.2966ZM16.9318 5.98558C16.9327 6.9362 17.3141 7.84772 17.9924 8.52057C18.6707 9.19342 19.5907 9.57275 20.5509 9.57552H39.8919C40.8534 9.5746 41.7752 9.19608 42.455 8.52303C43.1349 7.84999 43.5172 6.93741 43.5182 5.98558V2.39563H16.9318V5.98558ZM60.4393 65.328L68.0481 57.7989C68.2745 57.5747 68.5815 57.4488 68.9017 57.4488C69.2219 57.4488 69.5289 57.5747 69.7553 57.7989C69.9817 58.023 70.1089 58.327 70.1089 58.644C70.1089 58.9609 69.9817 59.2649 69.7553 59.4891L62.1502 67.0217C64.3034 67.0426 66.4365 66.6094 68.4075 65.7509C70.3785 64.8923 72.1423 63.6282 73.5815 62.0425C75.0207 60.4568 76.1024 58.5858 76.7546 56.5542C77.4068 54.5225 77.6145 52.3766 77.3641 50.2593H75.3499C73.3665 50.2626 71.4036 50.657 69.5758 51.4193C67.748 52.1816 66.0918 53.2966 64.7039 54.6992C63.3159 56.1019 62.224 57.7641 61.4918 59.589C60.7597 61.4139 60.4019 63.3648 60.4393 65.328Z" />
</symbol>

<symbol viewBox="0 0 81 79"  id="icon3">
<path id="ecology" d="M78.9959 58.6588C78.5175 58.3069 77.9564 58.0812 77.3654 58.0029C76.7744 57.9247 76.173 57.9964 75.6178 58.2113C75.8084 57.5004 75.7647 56.748 75.4931 56.0633C75.2215 55.3786 74.7361 54.7973 74.1074 54.404C72.4661 53.1593 69.9687 54.2222 65.8301 55.9807C62.6819 57.3769 59.4427 58.5636 56.1344 59.5328C55.5915 58.7658 54.8687 58.14 54.0279 57.7089C53.1871 57.2779 52.2532 57.0544 51.306 57.0576C48.1057 57.1714 44.9011 57.0616 41.7164 56.7289V50.3624H59.8981C64.504 50.3513 68.9175 48.536 72.1718 45.3144C75.4259 42.0928 77.2553 37.7275 77.2591 33.1752C77.2591 32.8572 77.1312 32.5521 76.9037 32.3272C76.6762 32.1024 76.3676 31.976 76.0458 31.976H56.665C53.6429 31.9799 50.6741 32.7635 48.0523 34.2492C45.4306 35.7349 43.2466 37.8714 41.7164 40.4472V18.3864H59.8981C64.504 18.3753 68.9175 16.56 72.1718 13.3384C75.4259 10.1168 77.2553 5.75154 77.2591 1.19919C77.2582 0.883828 77.132 0.581432 76.9077 0.357133C76.6834 0.132835 76.379 0.0045825 76.0599 0L56.665 0C52.0567 0.00740463 47.6395 1.82102 44.3822 5.04304C41.1249 8.26506 39.2936 12.6324 39.2899 17.1872V24.4732C37.7615 21.8948 35.5783 19.7555 32.9564 18.2673C30.3345 16.779 27.3648 15.9933 24.3413 15.988H4.94637C4.62487 15.9889 4.31681 16.1156 4.08947 16.3403C3.86214 16.5649 3.73401 16.8694 3.73308 17.1872C3.73588 21.7422 5.56692 26.1101 8.82438 29.3324C12.0818 32.5546 16.4996 34.3679 21.1082 34.3744H39.2899V56.2884C31.1152 53.0789 34.1042 51.7014 12.0103 51.4637L1.91491 49.8764C1.7411 49.8499 1.56354 49.8605 1.39427 49.9077C1.22499 49.9549 1.06794 50.0374 0.933771 50.1498C0.799598 50.2622 0.691428 50.4018 0.616589 50.5591C0.54175 50.7164 0.50199 50.8878 0.5 51.0616V72.6295C0.499889 72.9146 0.602837 73.1903 0.79028 73.407C0.977723 73.6237 1.23733 73.767 1.52228 73.8112L11.6248 75.3985C26.729 80.6847 58.9006 81.9888 77.5456 66.1126C78.8296 65.3784 82.565 61.4453 78.9959 58.6588ZM63.1099 7.99575C56.711 7.71606 47.0436 8.1321 42.8342 11.5618C43.9595 8.85757 45.8707 6.5437 48.3262 4.91268C50.7816 3.28166 53.6712 2.4067 56.6296 2.39838H74.783C74.4768 6.09775 72.7751 9.54827 70.0153 12.0655C67.2555 14.5827 63.6393 15.9828 59.8839 15.988H41.9782C43.2198 13.1037 48.8087 10.3941 56.665 10.3941H63.1099C63.4317 10.3941 63.7403 10.2678 63.9679 10.0429C64.1954 9.818 64.3232 9.51298 64.3232 9.19494C64.3232 8.87689 64.1954 8.57187 63.9679 8.34698C63.7403 8.12209 63.4317 7.99575 63.1099 7.99575ZM21.1082 31.976C17.3527 31.9701 13.7365 30.5699 10.9763 28.0528C8.21614 25.5358 6.51342 22.0858 6.20564 18.3864H24.3413C27.3 18.3954 30.1897 19.2711 32.6451 20.9027C35.1005 22.5343 37.0115 24.8487 38.1367 27.5533C33.9556 24.1236 24.267 23.7006 17.8716 23.9838C17.5616 24.0003 17.2698 24.1337 17.0563 24.3564C16.8428 24.5792 16.7238 24.8744 16.7238 25.1812C16.7238 25.488 16.8428 25.7832 17.0563 26.0059C17.2698 26.2287 17.5616 26.3621 17.8716 26.3786H24.3342C32.1941 26.3786 37.7759 29.0917 39.021 31.9725L21.1082 31.976ZM10.6945 72.8218L2.91243 71.6051V52.4671L10.6945 53.6837V72.8218ZM56.9126 61.8054C62.406 60.5922 68.4159 56.7219 72.6323 56.3059C76.5764 59.6867 61.7587 63.3332 56.7711 64.8016C57.0514 63.827 57.0999 62.8015 56.9126 61.8054ZM56.665 34.3744H74.783C74.476 38.0735 72.7741 41.5235 70.0145 44.0406C67.2548 46.5577 63.6391 47.958 59.8839 47.964H41.9782C43.2198 45.0797 48.8087 42.3701 56.665 42.3701H63.1099C63.4317 42.3701 63.7403 42.2438 63.9679 42.0189C64.1954 41.794 64.3232 41.489 64.3232 41.1709C64.3232 40.8529 64.1954 40.5479 63.9679 40.323C63.7403 40.0981 63.4317 39.9718 63.1099 39.9718C56.7145 39.6921 47.0436 40.1116 42.8342 43.5414C43.9613 40.8309 45.8777 38.5125 48.3401 36.8804C50.8026 35.2483 53.7001 34.3761 56.665 34.3744ZM76.1201 64.1863C51.3308 83.625 18.6816 75.0244 13.1352 73.3497V53.8621C29.6897 53.9355 32.4417 55.5367 34.8753 56.9492C37.3762 58.3966 39.5304 59.6482 51.4157 59.4559C51.9169 59.4546 52.4118 59.5669 52.8624 59.7841C53.3129 60.0014 53.707 60.3178 54.0144 60.7091C54.3219 61.1004 54.5344 61.5562 54.6358 62.0414C54.7372 62.5266 54.7247 63.0283 54.5992 63.508C54.5992 63.8576 54.4118 65.0358 52.2965 65.8085C50.0291 66.686 45.0344 67.4342 34.0971 66.0322C33.7777 65.9914 33.4549 66.0777 33.1999 66.2721C32.9448 66.4665 32.7783 66.7531 32.737 67.0689C32.6958 67.3846 32.7831 67.7036 32.9798 67.9557C33.1765 68.2078 33.4664 68.3723 33.7858 68.4131C46.3291 71.2345 63.5698 66.0707 72.1053 62.0886C74.5814 61.0397 76.9301 60.0643 77.4572 60.4978C79.1798 61.7914 76.9053 63.536 76.1024 64.1863H76.1201ZM6.80698 56.6031C7.12876 56.6031 7.43737 56.7294 7.6649 56.9543C7.89244 57.1792 8.02027 57.4842 8.02027 57.8022C8.02027 58.1203 7.89244 58.4253 7.6649 58.6502C7.43737 58.8751 7.12876 59.0014 6.80698 59.0014C6.48519 59.0014 6.17659 58.8751 5.94905 58.6502C5.72152 58.4253 5.59369 58.1203 5.59369 57.8022C5.59369 57.4842 5.72152 57.1792 5.94905 56.9543C6.17659 56.7294 6.48519 56.6031 6.80698 56.6031Z" />
</symbol>


<symbol viewBox="0 0 81 79"  id="icon4">
<path id="natural life" d="M79.3131 38.2953H72.8953C71.4732 32.4225 68.4308 27.0536 64.1058 22.7844L41.3584 0.335889C41.126 0.120126 40.819 0 40.5 0C40.181 0 39.874 0.120126 39.6416 0.335889L22.158 17.5873C21.804 17.5873 21.4501 17.5349 21.0961 17.5349H1.68684C1.52756 17.5344 1.36975 17.565 1.22246 17.6249C1.07517 17.6847 0.94129 17.7727 0.828496 17.8837C0.715702 17.9948 0.62621 18.1267 0.565148 18.2719C0.504087 18.4172 0.472656 18.5729 0.472656 18.7302C0.475012 21.9539 1.25405 25.1308 2.74543 27.9986C4.23681 30.8663 6.39776 33.3427 9.04982 35.2232C-4.1292 77.8379 57.4649 97.8469 72.4033 55.648C74.9274 53.7531 76.9739 51.308 78.3831 48.5035C79.7924 45.6989 80.5262 42.6108 80.5273 39.4801C80.5236 39.1646 80.394 38.8632 80.1667 38.6414C79.9394 38.4196 79.6327 38.2953 79.3131 38.2953ZM40.4982 2.86279L62.3925 24.476C66.2545 28.2978 69.0128 33.0686 70.382 38.2953H59.9075C56.1684 38.298 52.5004 39.3039 49.2956 41.2055C46.0908 43.1071 43.4696 45.8329 41.7124 49.0914V37.9073C41.7092 33.2149 40.0675 28.667 37.0638 25.0304C34.0602 21.3938 29.8785 18.891 25.2236 17.9438L40.4982 2.86279ZM2.95058 19.929H21.0925C24.7042 19.9356 28.2323 21.0024 31.2283 22.9939C34.2243 24.9854 36.5527 27.8116 37.9176 31.113C32.8733 26.5485 21.7616 27.0064 14.6322 27.1147C14.322 27.1313 14.03 27.2646 13.8163 27.4873C13.6027 27.71 13.4836 28.005 13.4836 28.3118C13.4836 28.6185 13.6027 28.9136 13.8163 29.1362C14.03 29.3589 14.322 29.4922 14.6322 29.5088H24.328C31.7122 29.5088 38.0345 32.6963 39.107 36.6946H21.0925C16.4807 36.6865 12.0437 34.9516 8.67668 31.84C5.30968 28.7285 3.26335 24.4718 2.95058 19.929ZM62.4208 67.7024C38.9619 90.2243 1.26913 66.916 11.1738 36.5722C14.2092 38.2245 17.6193 39.0902 21.0854 39.0886H39.2805V71.428C39.2716 71.5907 39.2964 71.7534 39.3533 71.9063C39.4102 72.0592 39.498 72.199 39.6115 72.3172C39.7249 72.4355 39.8616 72.5296 40.0132 72.594C40.1647 72.6583 40.3279 72.6915 40.4929 72.6915C40.6579 72.6915 40.8211 72.6583 40.9727 72.594C41.1242 72.5296 41.2609 72.4355 41.3743 72.3172C41.4878 72.199 41.5757 72.0592 41.6326 71.9063C41.6895 71.7534 41.7142 71.5907 41.7053 71.428V59.8491H59.9004C63.0974 59.848 66.2496 59.107 69.1041 57.6856C67.5687 61.4346 65.2864 64.8408 62.3925 67.7024H62.4208ZM59.9428 57.455H41.8894C42.9514 53.4567 49.2842 50.2692 56.6684 50.2692H66.3713C66.6815 50.2527 66.9735 50.1193 67.1872 49.8966C67.4008 49.674 67.5199 49.3789 67.5199 49.0722C67.5199 48.7654 67.4008 48.4704 67.1872 48.2477C66.9735 48.025 66.6815 47.8917 66.3713 47.8751C59.2703 47.7563 48.0665 47.3194 43.0717 51.8699C44.4365 48.5676 46.7654 45.7409 49.7621 43.7493C52.7589 41.7577 56.288 40.6913 59.9004 40.6859H78.0529C77.7402 45.2297 75.6935 49.4872 72.3258 52.5994C68.9581 55.7116 64.5202 57.4469 59.9075 57.455H59.9428ZM33.2025 69.338C27.8618 67.7069 23.2428 64.3289 20.1061 59.7601C16.9694 55.1912 15.502 49.704 15.9455 44.2019C15.9858 43.8974 16.1429 43.6198 16.3844 43.4264C16.6259 43.2329 16.9334 43.1383 17.2434 43.162C17.5535 43.1858 17.8425 43.3261 18.0508 43.554C18.2592 43.782 18.371 44.0802 18.3633 44.3871C17.9631 49.3504 19.288 54.3002 22.1194 58.4204C24.9508 62.5406 29.1197 65.5852 33.9388 67.0523C34.0913 67.1023 34.2323 67.1815 34.3538 67.2853C34.4752 67.3892 34.5748 67.5156 34.6468 67.6574C34.7188 67.7992 34.7618 67.9537 34.7733 68.1119C34.7848 68.2701 34.7647 68.4291 34.714 68.5796C34.6634 68.7301 34.5832 68.8694 34.478 68.9893C34.3728 69.1092 34.2448 69.2076 34.1011 69.2786C33.9575 69.3497 33.8011 69.3922 33.6408 69.4035C33.4805 69.4149 33.3196 69.395 33.1671 69.345L33.2025 69.338Z" />
</symbol>



<symbol viewBox="0 0 81 79"  id="icon5">
<path id="payment" d="M22.3188 15.5581V10.7729C22.3142 10.0336 22.0149 9.32581 21.4857 8.80271C20.9566 8.2796 20.2401 7.98322 19.4913 7.97769H11.4112C10.6587 7.98234 9.93866 8.28073 9.40824 8.80772C8.87781 9.33471 8.58011 10.0475 8.58012 10.7905V15.5581C8.58012 16.3041 8.88027 17.0195 9.41454 17.547C9.94881 18.0745 10.6734 18.3708 11.429 18.3708H19.4913C20.2432 18.3653 20.9623 18.0665 21.492 17.5396C22.0216 17.0127 22.3188 16.3004 22.3188 15.5581ZM11.0052 15.5581V10.7729C11.0052 10.6666 11.048 10.5646 11.1241 10.4895C11.2003 10.4143 11.3035 10.3721 11.4112 10.3721H19.4913C19.5984 10.373 19.7007 10.4156 19.7761 10.4907C19.8514 10.5658 19.8937 10.6672 19.8937 10.7729V15.5581C19.8937 15.6638 19.8514 15.7652 19.7761 15.8403C19.7007 15.9153 19.5984 15.958 19.4913 15.9589H11.4112C11.3038 15.958 11.2011 15.9155 11.1252 15.8405C11.0492 15.7655 11.0062 15.6641 11.0052 15.5581ZM16.7528 24.2882C16.9176 24.2794 17.0825 24.3038 17.2373 24.36C17.3922 24.4162 17.5339 24.5029 17.6537 24.615C17.7735 24.727 17.8689 24.8619 17.9341 25.0116C17.9993 25.1613 18.0329 25.3225 18.0329 25.4854C18.0329 25.6483 17.9993 25.8095 17.9341 25.9591C17.8689 26.1088 17.7735 26.2438 17.6537 26.3558C17.5339 26.4678 17.3922 26.5546 17.2373 26.6108C17.0825 26.6669 16.9176 26.6914 16.7528 26.6826H9.79446C9.48423 26.666 9.19225 26.5326 8.9786 26.3099C8.76494 26.0872 8.64586 25.7921 8.64586 25.4854C8.64586 25.1786 8.76494 24.8836 8.9786 24.6609C9.19225 24.4382 9.48423 24.3048 9.79446 24.2882H16.7528ZM22.5574 24.2882H29.5158C29.826 24.3048 30.118 24.4382 30.3317 24.6609C30.5453 24.8836 30.6644 25.1786 30.6644 25.4854C30.6644 25.7921 30.5453 26.0872 30.3317 26.3099C30.118 26.5326 29.826 26.666 29.5158 26.6826H22.5574C22.2472 26.666 21.9552 26.5326 21.7416 26.3099C21.5279 26.0872 21.4088 25.7921 21.4088 25.4854C21.4088 25.1786 21.5279 24.8836 21.7416 24.6609C21.9552 24.4382 22.2472 24.3048 22.5574 24.2882ZM35.3204 26.6826C35.0102 26.666 34.7182 26.5326 34.5045 26.3099C34.2909 26.0872 34.1718 25.7921 34.1718 25.4854C34.1718 25.1786 34.2909 24.8836 34.5045 24.6609C34.7182 24.4382 35.0102 24.3048 35.3204 24.2882H42.2823C42.5926 24.3048 42.8845 24.4382 43.0982 24.6609C43.3118 24.8836 43.4309 25.1786 43.4309 25.4854C43.4309 25.7921 43.3118 26.0872 43.0982 26.3099C42.8845 26.5326 42.5926 26.666 42.2823 26.6826H35.3204ZM55.0453 26.6826H48.0834C47.7731 26.666 47.4811 26.5326 47.2675 26.3099C47.0538 26.0872 46.9348 25.7921 46.9348 25.4854C46.9348 25.1786 47.0538 24.8836 47.2675 24.6609C47.4811 24.4382 47.7731 24.3048 48.0834 24.2882H55.0453C55.2101 24.2794 55.3749 24.3038 55.5298 24.36C55.6847 24.4162 55.8263 24.5029 55.9461 24.615C56.0659 24.727 56.1613 24.8619 56.2265 25.0116C56.2917 25.1613 56.3254 25.3225 56.3254 25.4854C56.3254 25.6483 56.2917 25.8095 56.2265 25.9591C56.1613 26.1088 56.0659 26.2438 55.9461 26.3558C55.8263 26.4678 55.6847 26.5546 55.5298 26.6108C55.3749 26.6669 55.2101 26.6914 55.0453 26.6826ZM22.9064 33.5633H9.79446C9.62969 33.5721 9.46484 33.5477 9.30996 33.4915C9.15508 33.4353 9.01342 33.3485 8.89362 33.2365C8.77383 33.1245 8.67842 32.9895 8.61322 32.8399C8.54802 32.6902 8.51439 32.529 8.51439 32.3661C8.51439 32.2032 8.54802 32.042 8.61322 31.8923C8.67842 31.7427 8.77383 31.6077 8.89362 31.4957C9.01342 31.3836 9.15508 31.2969 9.30996 31.2407C9.46484 31.1845 9.62969 31.1601 9.79446 31.1689H22.9064C23.2166 31.1855 23.5086 31.3189 23.7223 31.5416C23.9359 31.7643 24.055 32.0593 24.055 32.3661C24.055 32.6728 23.9359 32.9679 23.7223 33.1906C23.5086 33.4133 23.2166 33.5467 22.9064 33.5633ZM29.9716 31.1689H48.3682C48.6785 31.1855 48.9704 31.3189 49.1841 31.5416C49.3978 31.7643 49.5168 32.0593 49.5168 32.3661C49.5168 32.6728 49.3978 32.9679 49.1841 33.1906C48.9704 33.4133 48.6785 33.5467 48.3682 33.5633H29.9716C29.6614 33.5467 29.3694 33.4133 29.1558 33.1906C28.9421 32.9679 28.823 32.6728 28.823 32.3661C28.823 32.0593 28.9421 31.7643 29.1558 31.5416C29.3694 31.3189 29.6614 31.1855 29.9716 31.1689ZM51.007 7.96363C49.7684 7.96656 48.5715 8.40536 47.6311 9.20125C46.8686 8.56601 45.9381 8.15915 44.9492 8.02858C43.9603 7.898 42.9542 8.04916 42.0494 8.46423C41.1446 8.87931 40.3788 9.54102 39.8422 10.3714C39.3056 11.2018 39.0205 12.1664 39.0205 13.1514C39.0205 14.1365 39.3056 15.101 39.8422 15.9314C40.3788 16.7618 41.1446 17.4235 42.0494 17.8386C42.9542 18.2537 43.9603 18.4048 44.9492 18.2743C45.9381 18.1437 46.8686 17.7368 47.6311 17.1016C48.2766 17.6379 49.0436 18.0127 49.867 18.194C50.6905 18.3752 51.546 18.3578 52.3612 18.143C53.1763 17.9282 53.927 17.5225 54.5494 16.9602C55.1719 16.398 55.6478 15.6958 55.9368 14.9132C56.2258 14.1306 56.3194 13.2908 56.2095 12.4649C56.0997 11.639 55.7897 10.8515 55.3059 10.1691C54.8221 9.4867 54.1787 8.9296 53.4303 8.54505C52.682 8.1605 51.8507 7.95985 51.007 7.96011V7.96363ZM44.2694 15.9448C43.5764 15.8642 42.9375 15.5352 42.4738 15.0203C42.0101 14.5054 41.754 13.8404 41.754 13.1514C41.754 12.4624 42.0101 11.7974 42.4738 11.2825C42.9375 10.7676 43.5764 10.4386 44.2694 10.358C45.0217 10.358 45.7431 10.653 46.2751 11.1782C46.807 11.7034 47.1058 12.4157 47.1058 13.1584C47.1058 13.9012 46.807 14.6135 46.2751 15.1387C45.7431 15.6639 45.0217 15.9589 44.2694 15.9589V15.9448ZM51.007 15.9448C50.2954 15.9452 49.6099 15.6802 49.0876 15.203C49.3713 14.5553 49.5176 13.8571 49.5176 13.1514C49.5176 12.4457 49.3713 11.7476 49.0876 11.0999C49.427 10.8039 49.8338 10.5932 50.2734 10.4857C50.7129 10.3783 51.1723 10.3771 51.6124 10.4824C52.0525 10.5877 52.4603 10.7964 52.8013 11.0906C53.1422 11.3849 53.4062 11.7561 53.5707 12.1726C53.7353 12.5892 53.7955 13.0388 53.7464 13.4832C53.6973 13.9277 53.5402 14.3539 53.2885 14.7256C53.0368 15.0973 52.698 15.4035 52.3008 15.6182C51.9036 15.8329 51.4598 15.9498 51.007 15.9589V15.9448ZM6.55386 47.8697C3.50913 48.2213 0.553416 46.8149 0.5 43.4818V4.38791C0.500943 3.22445 0.969478 2.10891 1.80273 1.28622C2.63598 0.463526 3.76585 0.000931141 4.94425 0L59.8955 0C61.0739 0.000931141 62.2038 0.463526 63.037 1.28622C63.8703 2.10891 64.3388 3.22445 64.3397 4.38791V34.7024C64.3229 35.0087 64.1879 35.297 63.9623 35.508C63.7367 35.7189 63.4379 35.8365 63.1272 35.8365C62.8165 35.8365 62.5177 35.7189 62.2921 35.508C62.0665 35.297 61.9315 35.0087 61.9146 34.7024V4.38791C61.9146 3.85919 61.7019 3.35212 61.3232 2.97826C60.9446 2.6044 60.431 2.39436 59.8955 2.39436H4.94425C4.40874 2.39436 3.89516 2.6044 3.5165 2.97826C3.13784 3.35212 2.92511 3.85919 2.92511 4.38791V43.4818C2.99277 45.5527 4.99054 45.5597 6.56098 45.4753C6.87118 45.4928 7.16278 45.627 7.3758 45.8503C7.58881 46.0736 7.70702 46.3691 7.70611 46.6758C7.7052 46.9826 7.58523 47.2773 7.37089 47.4994C7.15655 47.7215 6.86415 47.854 6.55386 47.8697ZM79.2821 38.2957H11.4112C11.0891 38.2957 10.7803 38.4221 10.5525 38.6469C10.3248 38.8717 10.1969 39.1767 10.1969 39.4947V77.7869C10.1969 77.9444 10.2283 78.1003 10.2893 78.2457C10.3503 78.3912 10.4398 78.5234 10.5525 78.6347C10.6653 78.746 10.7992 78.8343 10.9465 78.8946C11.0938 78.9548 11.2517 78.9858 11.4112 78.9858H79.2892C79.6107 78.9849 79.9186 78.8582 80.1456 78.6334C80.3726 78.4087 80.5 78.1043 80.5 77.7869V39.4947C80.5005 39.3374 80.4695 39.1816 80.4089 39.0361C80.3482 38.8907 80.2591 38.7585 80.1466 38.6471C80.0342 38.5357 79.9005 38.4474 79.7534 38.3871C79.6063 38.3268 79.4485 38.2957 79.2892 38.2957H79.2821ZM78.0678 76.5915H12.6077V40.6901H78.0607L78.0678 76.5915ZM18.683 67.0176C19.647 67.0185 20.5712 67.397 21.2529 68.07C21.9345 68.743 22.3179 69.6556 22.3188 70.6073C22.3188 70.9244 22.4464 71.2284 22.6735 71.4526C22.9005 71.6768 23.2085 71.8028 23.5296 71.8028H67.1673C67.4884 71.8028 67.7963 71.6768 68.0234 71.4526C68.2505 71.2284 68.378 70.9244 68.378 70.6073C68.3799 69.6558 68.7636 68.7438 69.445 68.071C70.1265 67.3982 71.0502 67.0194 72.0139 67.0176C72.3354 67.0176 72.6437 66.8917 72.8713 66.6676C73.0989 66.4436 73.2273 66.1395 73.2282 65.8221V51.4595C73.2273 51.1421 73.0989 50.838 72.8713 50.614C72.6437 50.3899 72.3354 50.264 72.0139 50.264C71.0502 50.2622 70.1265 49.8834 69.445 49.2106C68.7636 48.5378 68.3799 47.6258 68.378 46.6743C68.3785 46.517 68.3475 46.3611 68.2869 46.2157C68.2262 46.0703 68.1371 45.9381 68.0247 45.8267C67.9122 45.7153 67.7786 45.6269 67.6314 45.5666C67.4843 45.5064 67.3266 45.4753 67.1673 45.4753H23.5296C23.3703 45.4753 23.2126 45.5064 23.0654 45.5666C22.9183 45.6269 22.7847 45.7153 22.6722 45.8267C22.5597 45.9381 22.4706 46.0703 22.41 46.2157C22.3493 46.3611 22.3184 46.517 22.3188 46.6743C22.3202 47.1467 22.2273 47.6148 22.0452 48.0518C21.8632 48.4887 21.5956 48.8859 21.2579 49.2207C20.9202 49.5554 20.5189 49.8211 20.0771 50.0026C19.6352 50.184 19.1615 50.2776 18.683 50.2781C18.3615 50.2781 18.0532 50.4039 17.8255 50.628C17.5979 50.8521 17.4696 51.1562 17.4686 51.4735V65.8362C17.4733 66.1511 17.6033 66.4516 17.8305 66.6726C18.0577 66.8937 18.364 67.0176 18.683 67.0176ZM19.8937 52.5353C21.0576 52.2991 22.1258 51.7313 22.9663 50.902C23.8068 50.0728 24.3827 49.0186 24.6229 47.8697H66.0776C66.3145 49.0195 66.8889 50.075 67.7292 50.9047C68.5695 51.7343 69.6386 52.3015 70.8031 52.5353V64.7462C69.6386 64.9801 68.5695 65.5473 67.7292 66.3769C66.8889 67.2066 66.3145 68.2621 66.0776 69.4119H24.6229C24.3827 68.263 23.8068 67.2088 22.9663 66.3795C22.1258 65.5503 21.0576 64.9825 19.8937 64.7462V52.5353ZM31.3569 63.4348C32.62 63.401 33.8199 62.8818 34.7012 61.9878C35.5826 61.0937 36.0757 59.8954 36.0757 58.6478C36.0757 57.4002 35.5826 56.2019 34.7012 55.3079C33.8199 54.4138 32.62 53.8947 31.3569 53.8609C30.1113 53.9186 28.9361 54.4478 28.0753 55.3386C27.2145 56.2293 26.7342 57.4132 26.7342 58.6443C26.7342 59.8755 27.2145 61.0593 28.0753 61.9501C28.9361 62.8408 30.1113 63.37 31.3569 63.4278V63.4348ZM31.3569 56.2552C31.9835 56.2789 32.5765 56.5414 33.0113 56.9875C33.4462 57.4336 33.6891 58.0287 33.6891 58.6478C33.6891 59.267 33.4462 59.862 33.0113 60.3081C32.5765 60.7543 31.9835 61.0167 31.3569 61.0404C30.7303 61.0167 30.1373 60.7543 29.7025 60.3081C29.2676 59.862 29.0247 59.267 29.0247 58.6478C29.0247 58.0287 29.2676 57.4336 29.7025 56.9875C30.1373 56.5414 30.7303 56.2789 31.3569 56.2552ZM59.6391 63.4348C60.9022 63.401 62.1021 62.8818 62.9835 61.9878C63.8648 61.0937 64.3579 59.8954 64.3579 58.6478C64.3579 57.4002 63.8648 56.2019 62.9835 55.3079C62.1021 54.4138 60.9022 53.8947 59.6391 53.8609C58.3935 53.9186 57.2183 54.4478 56.3575 55.3386C55.4967 56.2293 55.0165 57.4132 55.0165 58.6443C55.0165 59.8755 55.4967 61.0593 56.3575 61.9501C57.2183 62.8408 58.3935 63.37 59.6391 63.4278V63.4348ZM59.6391 56.2552C60.2657 56.2789 60.8587 56.5414 61.2935 56.9875C61.7284 57.4336 61.9713 58.0287 61.9713 58.6478C61.9713 59.267 61.7284 59.862 61.2935 60.3081C60.8587 60.7543 60.2657 61.0167 59.6391 61.0404C59.0125 61.0167 58.4195 60.7543 57.9847 60.3081C57.5498 59.862 57.3069 59.267 57.3069 58.6478C57.3069 58.0287 57.5498 57.4336 57.9847 56.9875C58.4195 56.5414 59.0125 56.2789 59.6391 56.2552ZM44.1305 50.7176C44.0415 49.8316 44.1946 48.6748 45.3413 48.6748C46.488 48.6748 46.6411 49.8281 46.5521 50.7141C47.3196 50.8734 48.0372 51.212 48.645 51.7013C49.2528 52.1907 49.733 52.8167 50.0455 53.5268C50.1527 53.8162 50.1429 54.1353 50.0182 54.4178C49.8934 54.7002 49.6633 54.9244 49.3756 55.0438C49.0879 55.1633 48.7647 55.1687 48.473 55.0591C48.1813 54.9494 47.9436 54.7331 47.8091 54.4551C46.9474 52.1732 42.6562 52.7287 42.7203 55.2215C42.7203 56.7299 43.575 57.4647 45.3413 57.4647C46.5691 57.3062 47.8104 57.6357 48.7921 58.3808C49.7738 59.1259 50.4156 60.2255 50.5761 61.4377C50.7367 62.65 50.4029 63.8755 49.6483 64.8448C48.8936 65.8141 47.7799 66.4477 46.5521 66.6062C46.6411 67.4922 46.4844 68.6419 45.3413 68.6454C44.1982 68.6489 44.0415 67.4887 44.1305 66.6027C43.3662 66.441 42.652 66.1015 42.0474 65.6122C41.4429 65.1229 40.9655 64.4982 40.6549 63.7899C40.5298 63.4976 40.5274 63.1681 40.6483 62.874C40.7691 62.58 41.0034 62.3453 41.2995 62.2218C41.5956 62.0982 41.9292 62.0959 42.2271 62.2152C42.5249 62.3346 42.7626 62.5658 42.8877 62.8582C43.7495 65.1435 48.0442 64.5845 47.9801 62.0952C47.9801 60.608 47.0934 59.852 45.3413 59.852C44.1135 60.0106 42.8722 59.681 41.8905 58.936C40.9088 58.1909 40.2671 57.0912 40.1065 55.879C39.9459 54.6668 40.2797 53.4412 41.0344 52.472C41.789 51.5027 42.9027 50.8691 44.1305 50.7106V50.7176Z" />
</symbol>



<symbol viewBox="0 0 25 24"  id="inst">
<path d="M17.6794 5.67238C17.6794 4.98051 18.2682 4.41964 18.9947 4.41964C19.7211 4.41964 20.31 4.98051 20.31 5.67238C20.31 6.36424 19.7211 6.92512 18.9947 6.92512C18.2682 6.92512 17.6794 6.36424 17.6794 5.67238Z" />
<path  d="M12.4182 5.98556C8.96774 5.98556 6.17057 8.64971 6.17057 11.9361C6.17057 15.2225 8.96774 17.8866 12.4182 17.8866C15.8688 17.8866 18.6659 15.2225 18.6659 11.9361C18.6659 8.64971 15.8688 5.98556 12.4182 5.98556ZM8.14351 11.9361C8.14351 9.68754 10.0574 7.86468 12.4182 7.86468C14.779 7.86468 16.6929 9.68754 16.6929 11.9361C16.6929 14.1846 14.779 16.0075 12.4182 16.0075C10.0574 16.0075 8.14351 14.1846 8.14351 11.9361Z" />
<path  d="M19.3353 0.451678C14.7757 -0.0336972 10.0625 -0.0336972 5.50298 0.451678C2.85653 0.733382 0.720064 2.71899 0.408931 5.2527C-0.13631 9.69275 -0.13631 14.1783 0.408931 18.6184C0.720064 21.1521 2.85653 23.1377 5.50298 23.4194C10.0625 23.9047 14.7757 23.9047 19.3353 23.4194C21.9817 23.1377 24.1181 21.1521 24.4293 18.6184C24.9745 14.1783 24.9745 9.69275 24.4293 5.2527C24.1181 2.71899 21.9817 0.733382 19.3353 0.451678ZM5.72212 2.31915C10.136 1.8493 14.7022 1.8493 19.116 2.31915C20.8656 2.50538 22.267 3.82029 22.4698 5.47099C22.9972 9.76604 22.9972 14.105 22.4698 18.4001C22.267 20.0508 20.8656 21.3657 19.116 21.552C14.7022 22.0217 10.136 22.0217 5.72212 21.552C3.97264 21.3657 2.57121 20.0508 2.36851 18.4001C1.84107 14.105 1.84107 9.76604 2.36851 5.47099C2.57121 3.82029 3.97264 2.50538 5.72212 2.31915Z" />
</symbol>


<symbol viewBox="0 0 29 24" id="tel">
<path fill-rule="evenodd" clip-rule="evenodd" d="M6.6562 14.4405C6.71734 14.4602 6.77906 14.4741 6.84072 14.4826C6.90797 14.6335 6.99485 14.8284 7.09622 15.0565C7.34359 15.613 7.67689 16.3659 8.02093 17.1511C8.72256 18.7526 9.43027 20.4035 9.58658 20.876C9.78008 21.4602 9.98461 21.8573 10.2079 22.1285C10.3233 22.2687 10.4569 22.3911 10.6131 22.4838C10.6918 22.5305 10.7748 22.5687 10.8616 22.5972C10.8654 22.5986 10.8692 22.5998 10.873 22.601C11.3201 22.762 11.7277 22.6949 11.9828 22.613C12.1194 22.569 12.2298 22.5161 12.3081 22.4732C12.3481 22.4512 12.3818 22.4308 12.4087 22.4135L12.415 22.4095L16.3632 20.0606L20.9236 23.3961C20.9909 23.4453 21.0643 23.4866 21.1421 23.519C21.69 23.747 22.2204 23.8265 22.7196 23.7615C23.2177 23.6966 23.6133 23.497 23.9078 23.2721C24.1961 23.0521 24.3916 22.8055 24.5134 22.6224C24.5756 22.5289 24.6222 22.4461 24.6551 22.3828C24.6717 22.351 24.685 22.3235 24.6951 22.3015L24.7084 22.2725L24.7133 22.261L24.7154 22.2562L24.7164 22.2539L24.7172 22.2518C24.7412 22.1946 24.7595 22.1355 24.7721 22.0751L28.9355 2.05039C28.9488 1.98636 28.9555 1.92121 28.9555 1.85592C28.9555 1.26951 28.7239 0.711905 28.1793 0.373541C27.7139 0.0843412 27.1953 0.0718937 26.8676 0.0956161C26.5141 0.121218 26.1877 0.204472 25.9685 0.270988C25.8545 0.305612 25.7589 0.33901 25.6901 0.364492C25.6554 0.377299 25.6269 0.388294 25.6058 0.396677L25.5899 0.403047L2.24136 9.14106L2.23835 9.14213C2.22347 9.14733 2.20436 9.15412 2.18166 9.16252C2.13645 9.17931 2.07586 9.2029 2.00511 9.23355C1.86711 9.29326 1.67352 9.38642 1.47486 9.51622C1.15748 9.72359 0.427577 10.2915 0.550483 11.2288C0.648536 11.9766 1.1855 12.4358 1.51266 12.6566C1.6923 12.7779 1.86297 12.8645 1.98725 12.9211C2.04491 12.9472 2.16463 12.9935 2.21657 13.0138L2.22968 13.0189L6.6562 14.4405ZM26.4071 2.2438L26.4038 2.24516C26.3922 2.24998 26.3805 2.25459 26.3687 2.25902L2.99175 11.0077C2.97954 11.0122 2.96724 11.0166 2.95487 11.0207L2.94186 11.0254C2.9269 11.031 2.90173 11.0407 2.87013 11.0543C2.8522 11.062 2.8335 11.0706 2.81443 11.0796C2.84064 11.0938 2.8657 11.1059 2.88798 11.116C2.90937 11.1257 2.92568 11.1324 2.93461 11.1359L7.32477 12.5459C7.40513 12.5717 7.48003 12.6059 7.54879 12.6472L22.0448 4.55156L22.0584 4.54391C22.069 4.53795 22.0828 4.5303 22.0994 4.52133C22.1324 4.50354 22.1778 4.47986 22.2317 4.45367C22.3323 4.40483 22.4932 4.33231 22.6746 4.27884C22.8009 4.24162 23.1731 4.13675 23.5756 4.25991C23.824 4.33591 24.0812 4.49931 24.2484 4.77612C24.3315 4.91364 24.3758 5.05179 24.3972 5.17825C24.4542 5.37747 24.4452 5.57419 24.4007 5.74402C24.3046 6.10986 24.0351 6.39523 23.7899 6.6135C23.5799 6.80063 20.8623 9.30059 18.1814 11.7685C16.8443 12.9991 15.521 14.2178 14.5319 15.1286L13.8822 15.727L22.0852 21.7266C22.2732 21.7908 22.3844 21.7876 22.436 21.7808C22.4973 21.7728 22.5474 21.7503 22.5987 21.7113C22.656 21.6675 22.7061 21.6084 22.7436 21.552L22.7451 21.5497L26.7831 2.12806C26.7231 2.1418 26.6625 2.15817 26.6041 2.17589C26.5379 2.19598 26.4834 2.21512 26.4472 2.22848C26.4293 2.23511 26.4165 2.24013 26.4095 2.2429L26.4071 2.2438ZM14.5869 18.7614L12.9504 17.5644L12.5538 19.9709L14.5869 18.7614ZM11.4491 15.1892L13.0765 13.6903C14.0657 12.7794 15.3892 11.5607 16.7263 10.3298L18.0848 9.07949L8.97655 14.1662L9.02542 14.2762C9.27366 14.8347 9.60846 15.5907 9.95432 16.3803C10.2129 16.9705 10.4834 17.5921 10.7297 18.1676L11.1251 15.7681C11.1632 15.5368 11.2817 15.3366 11.4491 15.1892Z" />
</symbol>


<symbol viewBox="0 0 24 24"  id="vib">
<path d="M7.42185 5.0049C7.20188 4.97424 6.97752 5.01637 6.78613 5.12427H6.76982C6.32547 5.37275 5.92519 5.6868 5.58386 6.05475C5.30019 6.36763 5.14631 6.68422 5.1059 6.98895C5.0818 7.17059 5.09812 7.35224 5.15486 7.52573L5.17506 7.53759C5.49448 8.43323 5.91182 9.29475 6.42165 10.1059C7.07836 11.2454 7.88657 12.2992 8.8262 13.2414L8.85417 13.2799L8.89848 13.3111L8.92645 13.3421L8.95909 13.3689C9.95021 14.2679 11.0575 15.0426 12.2543 15.6739C13.6221 16.3842 14.4522 16.7201 14.9503 16.8595V16.8669C15.0964 16.9092 15.2293 16.9284 15.363 16.9284C15.7875 16.8988 16.1895 16.7343 16.5046 16.4613C16.8885 16.1356 17.2141 15.7522 17.4683 15.3263V15.3188C17.7068 14.8903 17.6261 14.4847 17.2818 14.2104C16.5922 13.6354 15.8467 13.1248 15.0552 12.6853C14.5251 12.411 13.9866 12.577 13.7682 12.8551L13.3027 13.4149C13.0641 13.6928 12.6304 13.6543 12.6304 13.6543L12.618 13.6617C9.3842 12.8736 8.52155 9.74998 8.52155 9.74998C8.52155 9.74998 8.48113 9.32518 8.78035 9.10866L9.36321 8.66085C9.64222 8.44435 9.83652 7.93129 9.5373 7.4249C9.07987 6.66877 8.54572 5.9573 7.94256 5.30072C7.81069 5.14594 7.6257 5.04062 7.4203 5.00342L7.42185 5.0049Z" />
<path d="M12.8876 3.64691C12.5606 3.64691 12.2955 3.89982 12.2955 4.2118C12.2955 4.52378 12.5606 4.77669 12.8876 4.77669C14.3851 4.77669 15.6294 5.24365 16.6124 6.1378C17.1185 6.62744 17.5124 7.20703 17.771 7.84127C18.0306 8.47791 18.1487 9.15676 18.1183 9.83677C18.1045 10.1485 18.358 10.4118 18.6848 10.425C19.0115 10.4384 19.2877 10.1964 19.3015 9.88467C19.3388 9.04818 19.1934 8.21355 18.8746 7.43168C18.5558 6.64985 18.0706 5.9374 17.4488 5.33761L17.4369 5.32674C16.2171 4.21388 14.671 3.64691 12.8876 3.64691Z"/>
<path d="M12.846 5.50487C12.519 5.50487 12.2538 5.75779 12.2538 6.06976C12.2538 6.38174 12.519 6.63466 12.846 6.63466H12.8653C13.9459 6.7073 14.7321 7.05091 15.2834 7.61495C15.8477 8.19584 16.14 8.91735 16.1183 9.81011C16.1107 10.1219 16.3697 10.3806 16.6966 10.3879C17.0235 10.3951 17.2947 10.1481 17.3023 9.8362C17.3307 8.66407 16.9356 7.65333 16.1513 6.84629L16.1503 6.84522C15.349 6.0249 14.2497 5.59094 12.9253 5.50614L12.9055 5.50487H12.846Z" />
<path d="M12.8239 7.39673C12.4973 7.38033 12.2187 7.61959 12.2015 7.93114C12.1843 8.2427 12.4351 8.50855 12.7616 8.52496C13.2575 8.54985 13.5734 8.69171 13.7722 8.88314C13.9718 9.0754 14.121 9.38325 14.1483 9.8659C14.1659 10.1775 14.4448 10.4164 14.7714 10.3996C15.0979 10.3829 15.3484 10.1168 15.3309 9.80523C15.2926 9.12735 15.0702 8.52803 14.6137 8.08816C14.1562 7.64748 13.5315 7.43226 12.8239 7.39673Z" />
<path  d="M6.35841 0.690358C10.1268 -0.113257 14.0347 -0.113257 17.8031 0.690358L18.2047 0.775973C20.451 1.25499 22.2238 2.89862 22.79 5.02699C23.7465 8.62292 23.7465 12.3899 22.79 15.9857C22.2238 18.1141 20.4509 19.7577 18.2047 20.2368L17.8031 20.3224C15.436 20.8272 13.0139 21.0149 10.6058 20.8855L7.46375 23.5675C7.22248 23.7734 6.88286 23.8378 6.57739 23.7356C6.27191 23.6334 6.04896 23.3806 5.9955 23.0759L5.47584 20.1144C3.45978 19.5168 1.89668 17.9597 1.37158 15.9857C0.415038 12.3899 0.415038 8.62292 1.37158 5.027C1.93774 2.89862 3.71064 1.25499 5.95691 0.775973L6.35841 0.690358ZM17.4156 2.34421C13.9024 1.59502 10.2592 1.59502 6.74592 2.34421L6.34442 2.42983C4.7518 2.76945 3.4948 3.9348 3.09338 5.44384C2.20961 8.7662 2.20961 12.2465 3.09338 15.5688C3.4948 17.0779 4.75179 18.2433 6.34442 18.5829L6.45048 18.6055C6.80326 18.6807 7.07304 18.9524 7.13273 19.2926L7.48122 21.2787L9.69858 19.3859C9.87762 19.2331 10.1139 19.156 10.3536 19.1722C12.7144 19.3316 15.0934 19.1637 17.4156 18.6685L17.8171 18.5829C19.4098 18.2433 20.6668 17.0779 21.0682 15.569C21.9519 12.2465 21.9519 8.7662 21.0682 5.44384C20.6668 3.9348 19.4098 2.76945 17.8171 2.42983L17.4156 2.34421Z" />
</symbol>



</svg>





